<?xml version="1.0" encoding="utf-8"?>
<svg version="1.0" xmlns="http://www.w3.org/2000/svg" width="3000.000000pt" height="2142.000000pt" viewBox="344.666 -63.306 2198.124 1990.769" preserveAspectRatio="xMidYMid meet">
  <g transform="translate(0.000000,2142.000000) scale(0.100000,-0.100000)" fill="#000000" stroke="none">
    <path d="M 13892.324 19559.425 C 13611.979 19417.027 13518.531 19376.978 13456.231 19376.978 C 13416.182 19376.978 13322.734 19345.828 13251.536 19310.23 C 13184.786 19274.63 13086.888 19243.48 13042.389 19243.48 C 12997.89 19243.48 12895.541 19185.63 12815.442 19114.432 C 12690.844 19003.184 12677.494 18972.035 12721.994 18883.037 C 12753.143 18807.388 12842.142 18753.989 13033.488 18700.589 C 13175.887 18656.09 13336.083 18620.49 13380.582 18620.49 C 13429.531 18620.49 13549.68 18589.341 13647.579 18558.191 L 13825.576 18495.893 L 13825.576 17788.354 L 13825.576 17085.266 L 13558.579 17054.116 C 13411.732 17040.767 13011.239 17005.167 12673.045 16974.018 C 12334.85 16947.319 12023.355 16907.269 11983.306 16889.469 C 11943.257 16867.22 11787.51 16840.52 11636.212 16827.17 L 11355.866 16796.021 L 11355.866 17904.053 C 11355.866 19114.432 11351.416 19145.582 11102.221 19096.632 C 10964.274 19069.933 10612.729 18949.785 10510.381 18896.386 C 10474.781 18874.136 10323.484 18820.737 10176.636 18776.238 C 9927.44 18700.589 9709.394 18549.292 9709.394 18446.943 C 9709.394 18371.295 9940.79 18219.997 10060.939 18219.997 C 10123.237 18219.997 10256.735 18188.847 10354.633 18153.249 C 10452.532 18117.649 10603.829 18090.949 10692.827 18086.499 C 10790.725 18086.499 10866.374 18059.799 10879.724 18024.201 C 10893.074 17988.601 10910.874 17677.107 10915.324 17330.011 C 10924.223 16626.923 10937.574 16658.073 10617.178 16577.974 C 10421.382 16533.475 10198.886 16457.826 9998.639 16373.277 C 9927.44 16342.129 9758.344 16270.93 9624.845 16217.531 C 8743.76 15857.086 7809.275 15140.649 7448.832 14539.908 C 7261.935 14228.414 7128.436 13925.819 7128.436 13814.57 C 7128.436 13761.171 7106.187 13632.124 7079.487 13529.776 C 6999.388 13200.481 7204.085 12946.835 7479.981 13035.833 C 7609.029 13075.883 7706.927 13280.58 7706.927 13511.975 C 7706.927 13618.773 7729.176 13734.472 7751.427 13770.071 C 7773.677 13805.671 7795.926 13814.57 7795.926 13792.32 C 7795.926 13765.621 7889.374 13645.473 8009.522 13520.875 C 8539.063 12960.184 8730.411 12755.489 8899.508 12555.242 L 9081.955 12346.095 L 8921.757 12030.15 C 8672.561 11536.208 8663.661 11113.465 8899.508 11015.567 C 9157.604 10908.769 9353.4 11086.766 9353.4 11438.31 C 9353.4 11602.957 9549.197 11967.851 9767.243 12199.248 C 9838.441 12274.896 10011.989 12412.843 10149.937 12506.292 C 10287.885 12599.741 10408.033 12688.739 10421.382 12702.089 C 10434.732 12715.439 10523.73 12759.937 10621.628 12804.438 C 10719.527 12848.937 10857.475 12915.685 10924.223 12951.285 C 10995.422 12986.884 11075.521 13013.583 11102.221 13013.583 C 11133.37 13013.583 11209.019 13040.283 11275.768 13075.883 C 11342.517 13111.482 11462.665 13151.532 11542.764 13169.331 C 11622.862 13187.13 11711.861 13218.28 11734.11 13236.08 C 11760.81 13253.88 11880.958 13285.029 12001.105 13302.829 C 12125.703 13320.629 12245.852 13347.328 12268.102 13369.578 C 12294.801 13387.377 12472.799 13414.077 12668.595 13431.877 C 12864.391 13445.226 13095.788 13480.826 13180.336 13503.076 C 13385.032 13560.924 14866.858 13560.924 15107.155 13503.076 C 15209.503 13476.376 15445.348 13436.326 15627.796 13414.077 C 15934.841 13378.478 16362.034 13285.029 16517.78 13227.18 C 16553.38 13209.38 16695.777 13164.881 16829.275 13124.832 C 16962.774 13084.782 17136.321 13022.484 17207.519 12991.334 C 17425.565 12893.436 17821.61 12702.089 17955.106 12630.889 C 18155.353 12519.642 18640.395 12047.95 18716.044 11878.852 C 18756.093 11794.304 18809.492 11714.205 18831.742 11700.856 C 18858.441 11687.506 18876.242 11585.157 18876.242 11478.359 C 18876.242 11206.914 18951.891 11068.966 19129.887 11006.667 C 19254.484 10966.618 19298.985 10971.068 19392.433 11033.367 C 19503.681 11104.565 19508.13 11126.815 19490.331 11424.961 C 19476.982 11687.506 19445.832 11803.203 19312.334 12070.2 L 19147.687 12390.594 L 19352.384 12626.441 C 19819.626 13155.982 20451.515 13810.121 20478.215 13792.32 C 20496.014 13783.421 20536.063 13632.124 20567.213 13454.127 C 20602.813 13280.58 20656.212 13111.482 20691.811 13075.883 C 20785.26 12982.434 20949.907 13000.234 21078.955 13124.832 C 21185.753 13218.28 21194.653 13258.33 21176.853 13445.226 C 21110.105 14081.566 20909.858 14486.51 20393.666 15024.95 C 19979.824 15456.593 19481.431 15821.486 19045.339 16008.384 C 18974.14 16035.084 18920.741 16075.132 18920.741 16092.933 C 18920.741 16110.732 18894.041 16128.532 18867.342 16128.532 C 18836.192 16132.982 18729.393 16168.582 18631.495 16217.531 C 18533.597 16266.48 18422.349 16306.529 18386.749 16306.529 C 18351.15 16306.529 18279.951 16337.679 18235.452 16373.277 C 18186.503 16408.877 18106.404 16440.027 18053.005 16440.027 C 17999.605 16440.027 17941.757 16457.826 17919.508 16480.076 C 17892.808 16506.775 17794.91 16542.375 17697.012 16569.075 C 17599.112 16595.775 17425.565 16640.274 17309.868 16666.973 L 17096.27 16720.372 L 17096.27 17864.003 C 17096.27 18691.689 17082.921 19016.534 17042.872 19056.584 C 16971.673 19127.782 16789.227 19123.332 16633.479 19043.233 C 16566.73 19007.635 16473.281 18976.485 16433.232 18976.485 C 16393.182 18976.485 16317.533 18949.785 16268.584 18914.185 C 16219.635 18878.587 16103.938 18838.536 16014.938 18820.737 C 15921.49 18802.938 15836.942 18771.788 15823.592 18749.538 C 15810.243 18727.289 15765.743 18709.488 15721.244 18709.488 C 15676.745 18709.488 15596.646 18660.539 15538.796 18598.241 C 15445.348 18500.343 15440.898 18478.093 15494.297 18375.745 C 15534.347 18300.096 15605.546 18255.597 15712.345 18242.247 C 15801.343 18224.447 15917.04 18197.748 15974.89 18171.048 C 16028.289 18148.799 16188.487 18117.649 16330.884 18104.3 C 16468.831 18086.499 16597.879 18050.9 16615.68 18024.201 C 16633.479 17997.501 16651.278 17721.606 16651.278 17410.11 L 16651.278 16840.52 L 16531.13 16840.52 C 16459.932 16840.52 16335.334 16858.32 16250.785 16885.019 C 16166.236 16907.269 15836.942 16951.768 15516.547 16978.467 C 15200.603 17009.617 14817.909 17045.217 14671.061 17058.566 L 14404.066 17085.266 L 14390.716 18233.346 C 14377.367 19523.825 14364.016 19603.924 14097.021 19595.024 C 14021.372 19595.024 13927.924 19577.225 13892.324 19559.425 Z M 13825.576 19020.984 C 13838.925 18998.734 13812.225 18976.485 13758.826 18976.485 C 13705.427 18976.485 13678.728 18998.734 13692.078 19020.984 C 13705.427 19047.683 13736.577 19065.483 13758.826 19065.483 C 13781.076 19065.483 13812.225 19047.683 13825.576 19020.984 Z M 15249.552 16391.078 C 15641.145 16368.828 16010.489 16324.328 16072.788 16302.079 C 16135.087 16279.829 16250.785 16253.129 16330.884 16244.23 C 16410.983 16235.33 16486.632 16217.531 16499.981 16208.631 C 16508.881 16195.281 16451.032 16048.433 16366.483 15879.336 C 16281.935 15710.239 16148.437 15434.344 16072.788 15260.797 C 15992.689 15091.7 15872.541 14833.604 15801.343 14691.205 C 15730.144 14553.258 15672.295 14406.411 15672.295 14370.811 C 15672.295 14335.212 15654.495 14304.062 15632.246 14304.062 C 15609.996 14304.062 15569.946 14241.763 15543.247 14166.114 C 15507.648 14059.317 15476.498 14032.617 15418.649 14059.317 C 15080.455 14197.264 13247.085 14197.264 12797.643 14059.317 C 12699.744 14028.167 12650.794 14112.715 12161.303 15171.797 C 12094.555 15318.645 11965.507 15590.091 11876.507 15776.987 C 11783.059 15963.885 11711.861 16137.432 11711.861 16164.132 C 11711.861 16190.831 11778.609 16221.981 11858.708 16239.78 C 11934.357 16253.129 12090.105 16288.729 12201.352 16310.979 C 12704.194 16422.228 14186.019 16462.276 15249.552 16391.078 Z M 17247.568 16043.984 C 17265.369 16021.733 17354.367 15990.585 17456.715 15972.784 C 17554.613 15954.985 17692.561 15914.936 17754.86 15879.336 C 17821.61 15843.737 17910.607 15817.038 17950.656 15817.038 C 17990.706 15817.038 18079.704 15790.338 18150.903 15754.738 C 18217.653 15719.139 18462.398 15598.99 18684.894 15487.743 C 18911.841 15376.494 19205.535 15216.298 19334.583 15136.199 C 19637.178 14940.402 20122.221 14490.959 20122.221 14401.961 C 20122.221 14344.111 19690.578 13841.27 19254.484 13391.827 C 19183.286 13316.178 19036.439 13160.431 18929.64 13044.733 C 18827.293 12929.036 18720.494 12835.586 18693.795 12835.586 C 18649.296 12835.586 18302.2 13084.782 18253.251 13155.982 C 18239.902 13173.781 18177.603 13209.38 18119.754 13231.631 C 18057.455 13258.33 17977.356 13298.379 17941.757 13320.629 C 17906.157 13342.878 17843.859 13374.028 17808.259 13387.377 C 17772.659 13400.727 17710.361 13431.877 17674.761 13454.127 C 17572.412 13516.425 17287.618 13636.573 17238.669 13636.573 C 17216.419 13636.573 17136.321 13667.723 17069.571 13703.323 C 16998.372 13738.921 16909.374 13770.071 16869.324 13770.071 C 16829.275 13770.071 16722.477 13801.221 16637.929 13836.819 C 16548.93 13872.419 16415.433 13903.569 16344.233 13903.569 C 16184.036 13903.569 16135.087 13970.318 16197.386 14094.915 C 16224.085 14148.315 16308.634 14335.212 16384.283 14504.309 C 16464.382 14677.856 16593.429 14958.202 16673.528 15127.298 C 16753.627 15300.845 16887.125 15581.191 16971.673 15759.188 C 17109.621 16057.333 17189.72 16141.882 17247.568 16043.984 Z M 11235.719 15719.139 C 11320.267 15541.142 11453.765 15265.247 11524.963 15105.049 C 11600.612 14944.851 11751.91 14620.007 11863.158 14379.711 C 11974.406 14139.414 12067.855 13934.719 12067.855 13921.368 C 12067.855 13912.468 12001.105 13903.569 11925.457 13903.569 C 11845.359 13899.119 11698.51 13872.419 11600.612 13836.819 C 11502.714 13801.221 11391.466 13770.071 11355.866 13770.071 C 11320.267 13770.071 11231.269 13738.921 11160.07 13703.323 C 11093.32 13667.723 11013.223 13636.573 10986.523 13636.573 C 10844.125 13636.573 9780.593 13040.283 9580.346 12844.487 C 9531.397 12795.537 9455.749 12857.836 9113.103 13222.73 C 8890.607 13458.577 8565.763 13805.671 8387.766 13988.117 C 8018.422 14370.811 8018.422 14366.361 8392.216 14717.905 C 8619.162 14931.502 9108.653 15283.046 9175.403 15283.046 C 9197.652 15283.046 9242.151 15309.746 9273.301 15340.896 C 9344.5 15407.644 9722.744 15594.54 9793.942 15594.54 C 9820.642 15594.54 9842.891 15616.791 9842.891 15639.04 C 9842.891 15665.74 9887.39 15683.539 9945.24 15683.539 C 10003.089 15683.539 10087.637 15714.689 10136.587 15750.288 C 10181.086 15785.888 10261.185 15817.038 10310.134 15817.038 C 10359.083 15817.038 10443.631 15843.737 10488.131 15879.336 C 10568.229 15932.735 10866.374 16021.733 11026.572 16035.084 C 11057.722 16039.534 11151.17 15892.686 11235.719 15719.139 Z" style=""/>
    <path d="M 5682.211 13218.28 L 5579.863 13115.932 L 5562.063 11028.916 C 5544.263 8817.303 5544.263 8808.404 5757.86 8274.413 C 6033.755 7593.574 6843.642 6770.338 7742.527 6263.046 C 8240.918 5982.7 8899.508 5671.206 9006.306 5671.206 C 9037.455 5671.206 9104.204 5640.057 9148.703 5604.457 C 9197.652 5568.858 9268.851 5537.708 9313.35 5537.708 C 9353.4 5537.708 9446.848 5506.558 9513.597 5470.96 C 9584.797 5435.36 9682.695 5404.21 9731.644 5404.21 C 9785.043 5404.21 9842.891 5386.411 9865.141 5364.161 C 9891.84 5341.912 10011.989 5301.862 10132.137 5275.162 C 10586.03 5181.714 10937.574 5097.165 11088.871 5052.666 C 11173.419 5025.966 11315.818 5003.717 11409.266 5003.717 C 11498.264 5003.717 11627.312 4981.467 11694.061 4959.218 C 12223.601 4758.971 15921.49 4754.521 16580.08 4954.768 C 16655.728 4977.017 16847.075 5021.516 17007.273 5048.216 C 17167.47 5074.915 17416.666 5114.965 17559.063 5137.215 C 17705.911 5163.915 17843.859 5199.513 17870.559 5221.763 C 17897.258 5244.013 18012.956 5275.162 18128.653 5288.512 C 18244.352 5306.312 18351.15 5337.462 18364.5 5364.161 C 18382.299 5386.411 18435.699 5404.21 18489.098 5404.21 C 18542.497 5404.21 18644.846 5435.36 18716.044 5470.96 C 18782.793 5506.558 18876.242 5537.708 18916.291 5537.708 C 18956.34 5537.708 19027.539 5564.408 19076.489 5600.006 C 19125.438 5631.156 19227.786 5671.206 19298.985 5689.006 C 19472.532 5733.505 20273.518 6116.199 20291.318 6165.148 C 20300.218 6187.397 20331.368 6205.197 20362.516 6205.197 C 20482.665 6205.197 21310.351 6805.936 21648.545 7135.231 C 21977.84 7451.177 22436.182 8069.716 22436.182 8189.864 C 22436.182 8221.013 22462.882 8301.112 22498.481 8372.311 C 22654.228 8688.255 22663.129 8808.404 22658.679 10939.918 C 22658.679 12105.798 22645.328 13084.782 22631.979 13120.382 C 22587.48 13231.631 22391.683 13333.978 22275.985 13307.279 C 22151.387 13276.13 22031.239 13107.033 22026.789 12960.184 C 22022.339 12746.588 21937.791 12319.395 21875.491 12168.098 C 21755.344 11896.653 21661.896 11723.106 21626.296 11723.106 C 21612.946 11723.106 21586.247 11687.506 21572.896 11647.457 C 21492.797 11411.61 20496.014 10579.474 20113.32 10428.176 C 20042.122 10401.477 19988.723 10361.428 19988.723 10339.179 C 19988.723 10316.929 19966.473 10299.128 19935.323 10299.128 C 19908.624 10299.128 19752.877 10236.83 19592.679 10161.181 C 19058.688 9911.986 18942.99 9863.036 18764.993 9809.637 C 18667.095 9778.487 18538.047 9733.988 18475.747 9707.289 C 18368.95 9667.239 18177.603 9613.841 17608.012 9471.442 C 17461.165 9431.393 17220.868 9382.444 17074.021 9360.195 C 16927.174 9337.945 16758.077 9302.345 16695.777 9280.096 C 16633.479 9257.846 16424.332 9226.697 16228.535 9213.347 C 16032.739 9199.997 15801.343 9164.398 15716.794 9142.148 C 15512.098 9079.849 12762.043 9079.849 12566.247 9137.699 C 12481.698 9164.398 12241.402 9195.547 12032.255 9208.897 C 11818.659 9226.697 11596.162 9257.846 11533.864 9280.096 C 11471.564 9302.345 11302.467 9337.945 11155.62 9364.645 C 10755.127 9426.943 10034.239 9609.391 9811.742 9702.839 C 9736.093 9738.439 9633.746 9765.138 9584.797 9765.138 C 9531.397 9765.138 9482.448 9782.938 9469.098 9805.187 C 9455.749 9827.437 9388.999 9858.586 9322.25 9871.936 C 9184.302 9903.085 9130.904 9929.785 8485.664 10236.83 C 8240.918 10356.978 8031.771 10463.776 8018.422 10481.576 C 8005.072 10494.926 7907.173 10561.675 7795.926 10623.973 C 7684.677 10686.273 7555.629 10775.27 7506.68 10819.771 C 7457.731 10864.27 7310.884 10988.868 7181.836 11095.666 C 6914.841 11318.162 6598.895 11705.305 6460.948 11994.551 C 6407.549 12101.349 6345.25 12225.947 6327.45 12265.996 C 6305.2 12306.045 6274.051 12475.143 6260.701 12644.24 C 6225.101 13018.034 6171.702 13169.331 6033.755 13258.33 C 5891.358 13351.778 5806.809 13342.878 5682.211 13218.28 Z M 6625.595 10810.87 C 7057.238 10374.777 7640.178 9974.284 8329.916 9644.989 C 8903.958 9364.645 9108.653 9275.646 9166.503 9275.646 C 9188.752 9275.646 9268.851 9244.496 9335.6 9208.897 C 9406.799 9173.297 9500.248 9142.148 9544.746 9142.148 C 9584.797 9142.148 9655.995 9124.348 9700.494 9102.099 C 9869.591 9008.651 10946.473 8741.654 11155.62 8741.654 C 11217.918 8741.654 11311.368 8719.405 11360.317 8697.155 C 11409.266 8670.456 11640.662 8630.407 11880.958 8603.707 C 12116.804 8581.458 12454.998 8541.408 12624.095 8519.158 C 13029.038 8465.759 15196.153 8470.209 15627.796 8523.608 C 15810.243 8545.858 16130.637 8581.458 16339.784 8603.707 C 16548.93 8625.957 16807.026 8666.006 16918.275 8692.705 C 17029.522 8719.405 17220.868 8759.455 17341.017 8781.704 C 17545.714 8821.753 17777.109 8875.153 18297.752 9008.651 C 18408.999 9035.35 18515.798 9075.399 18538.047 9102.099 C 18564.747 9124.348 18622.596 9142.148 18671.545 9142.148 C 18724.944 9142.148 18822.843 9173.297 18894.041 9208.897 C 18960.79 9244.496 19049.789 9275.646 19085.388 9275.646 C 19120.988 9275.646 19205.535 9302.345 19267.835 9333.495 C 19334.583 9369.094 19459.181 9426.943 19543.73 9462.543 C 19850.775 9596.04 20144.47 9738.439 20166.72 9760.688 C 20180.07 9774.037 20291.318 9836.337 20411.465 9894.185 C 20731.861 10045.483 21252.502 10441.527 21630.746 10815.321 C 21813.193 10997.768 21973.39 11144.615 21991.19 11144.615 C 22008.99 11144.615 22022.339 10868.72 22022.339 10534.975 C 22022.339 10196.78 22026.789 9689.489 22031.239 9409.144 C 22040.139 9088.75 22017.889 8821.753 21982.29 8697.155 C 21906.641 8443.509 21693.044 8029.667 21635.196 8029.667 C 21608.496 8029.667 21590.696 8305.562 21590.696 8746.104 L 21590.696 9462.543 L 21443.848 9609.391 C 21265.851 9787.388 21150.154 9778.487 21012.206 9587.141 C 20927.657 9471.442 20923.207 9386.894 20923.207 8376.761 C 20923.207 7153.032 20949.907 7255.38 20544.964 7006.183 C 20447.065 6948.335 20362.516 6881.585 20353.617 6863.786 C 20344.717 6845.987 20309.118 6828.187 20277.968 6828.187 C 20242.368 6828.187 20188.969 6801.488 20157.821 6774.788 C 20095.521 6712.488 19650.529 6485.542 19298.985 6338.695 C 19178.837 6289.746 19040.889 6227.446 19000.84 6205.197 C 18956.34 6178.497 18876.242 6160.698 18818.393 6160.698 C 18760.543 6160.698 18675.995 6129.548 18627.045 6093.949 C 18435.699 5951.551 18431.248 5973.801 18431.248 7037.333 C 18431.248 8011.866 18426.798 8047.466 18333.35 8149.815 C 18204.302 8287.762 18017.406 8283.313 17901.707 8136.464 C 17812.709 8025.217 17808.259 7962.917 17808.259 6934.984 C 17808.259 5911.502 17803.809 5849.203 17723.71 5804.703 C 17674.761 5782.454 17576.863 5760.204 17501.214 5760.204 C 17425.565 5760.204 17287.618 5733.505 17198.619 5697.906 C 16993.923 5626.706 16477.731 5546.608 15872.541 5493.209 C 15627.796 5470.96 15245.102 5430.91 15018.155 5399.76 C 14795.659 5373.06 14590.962 5364.161 14564.263 5377.51 C 14528.664 5399.76 14515.314 5764.654 14515.314 6521.142 C 14515.314 7820.52 14497.514 7896.169 14168.22 7896.169 C 13883.424 7896.169 13874.525 7851.67 13847.825 6547.842 L 13825.576 5381.961 L 13558.579 5386.411 C 12971.19 5395.311 11409.266 5586.657 11026.572 5697.906 C 10910.874 5733.505 10764.027 5760.204 10701.727 5760.204 C 10643.878 5760.204 10554.88 5782.454 10505.931 5804.703 C 10425.832 5849.203 10421.382 5911.502 10421.382 6957.234 L 10421.382 8056.367 L 10310.134 8154.265 C 10176.636 8269.962 10056.488 8278.863 9909.641 8180.965 L 9798.392 8109.766 L 9798.392 7064.032 C 9798.392 6089.499 9793.942 6018.3 9722.744 6040.55 C 8979.606 6263.046 7827.075 6845.987 7408.782 7201.981 C 7306.434 7286.529 7306.434 7304.329 7306.434 8376.761 C 7306.434 9404.694 7301.983 9471.442 7212.985 9591.591 C 7088.388 9769.587 6905.94 9765.138 6754.643 9582.691 C 6638.945 9449.193 6638.945 9435.844 6638.945 8732.755 C 6638.945 8216.563 6625.595 8025.217 6589.996 8038.566 C 6469.848 8078.616 6185.053 8755.005 6185.053 8986.401 C 6189.503 9035.35 6189.503 9551.541 6189.503 10134.482 C 6193.953 10712.972 6207.302 11189.114 6220.651 11189.114 C 6234.002 11189.114 6416.449 11020.017 6625.595 10810.87 Z" style=""/>
  </g>
</svg>